<?xml version="1.0" standalone="no"?>
<!DOCTYPE svg PUBLIC "-//W3C//DTD SVG 20010904//EN"
 "http://www.w3.org/TR/2001/REC-SVG-20010904/DTD/svg10.dtd">
<svg version="1.0" xmlns="http://www.w3.org/2000/svg"
 width="169.000000pt" height="169.000000pt" viewBox="0 0 169.000000 169.000000"
 preserveAspectRatio="xMidYMid meet">
<metadata>
Created by potrace 1.11, written by Peter Selinger 2001-2013
</metadata>
<g transform="translate(0.000000,169.000000) scale(0.100000,-0.100000)"
fill="#000000" stroke="none">
<path d="M365 1411 c-11 -5 -26 -19 -32 -32 -19 -38 -46 -103 -49 -119 -2 -8
-22 -52 -46 -98 l-42 -84 -9 32 c-8 30 -10 32 -45 26 -68 -12 -106 -90 -68
-141 14 -19 15 -19 33 -2 11 9 32 17 48 17 15 0 34 8 41 18 12 16 13 16 14 -4
0 -31 29 -96 49 -111 28 -22 73 -14 131 21 78 48 107 50 146 11 20 -20 23 -29
15 -44 -14 -25 1 -73 33 -112 33 -39 33 -49 -3 -49 -45 0 -61 -23 -61 -86 0
-30 5 -75 11 -100 17 -66 7 -73 -99 -67 -79 5 -89 3 -106 -15 -12 -14 -17 -31
-14 -50 4 -26 0 -31 -29 -41 -18 -7 -33 -19 -33 -27 0 -8 0 -16 0 -19 0 -3 3
-5 8 -4 4 0 6 6 4 14 -1 7 2 16 8 20 5 3 10 2 10 -4 0 -7 8 -7 25 -1 17 6 27
6 31 -2 4 -7 3 -13 -3 -15 -6 -2 -19 -11 -29 -19 -18 -15 -18 -15 6 -9 14 4
41 7 61 6 49 -2 93 15 83 31 -6 9 -3 9 9 0 9 -8 31 -15 49 -17 18 -2 46 -8 61
-14 16 -6 38 -11 49 -11 21 0 21 0 2 22 -18 21 -18 21 0 15 10 -4 24 -3 31 3
21 17 29 -6 11 -31 -14 -20 -13 -23 9 -40 26 -21 100 -26 125 -8 11 7 5 8 -21
3 -44 -7 -79 9 -79 37 0 18 6 20 38 18 21 -2 42 0 47 3 10 6 66 11 93 9 20 -2
14 -19 -9 -26 -13 -5 -25 -2 -29 6 -6 9 -12 9 -24 -4 -24 -24 -20 -27 33 -27
31 0 53 5 61 15 10 12 16 12 26 4 8 -6 21 -9 29 -5 8 3 30 -1 48 -8 43 -18
165 -46 200 -46 35 0 95 25 123 51 17 16 26 18 47 10 58 -22 138 24 173 101
16 35 16 47 6 96 -7 31 -18 62 -25 67 -8 6 -20 34 -26 63 -7 28 -17 52 -22 52
-6 0 9 18 32 40 l41 39 -7 118 c-6 106 -15 147 -34 163 -3 3 -18 22 -33 42
-36 47 -68 62 -166 78 -73 12 -90 11 -197 -9 l-116 -22 -32 23 c-17 13 -39 28
-48 33 -9 6 -54 38 -100 73 -72 54 -92 64 -134 68 -92 8 -112 12 -143 28 -17
9 -39 16 -49 16 -10 0 -29 9 -43 20 -26 20 -61 24 -95 11z m-60 -481 c3 -5 1
-10 -4 -10 -6 0 -11 5 -11 10 0 6 2 10 4 10 3 0 8 -4 11 -10z m328 -55 c4 -8
3 -16 -1 -19 -13 -8 -35 11 -28 23 10 15 23 14 29 -4z m896 -27 c-1 -7 -5 -24
-9 -38 -7 -22 -8 -21 -9 13 -1 20 4 37 9 37 6 0 10 -6 9 -12z m-879 -22 c0 -3
-4 -8 -10 -11 -5 -3 -10 -1 -10 4 0 6 5 11 10 11 6 0 10 -2 10 -4z m570 -63
c22 -47 38 -153 22 -153 -17 0 -20 12 -12 41 7 23 5 31 -6 36 -7 3 -14 13 -14
23 0 11 -5 22 -11 25 -6 4 -8 14 -5 22 3 8 -1 21 -9 29 -19 19 -19 35 -1 28 8
-3 24 -26 36 -51z m-550 27 c0 -5 -4 -10 -10 -10 -5 0 -10 5 -10 10 0 6 5 10
10 10 6 0 10 -4 10 -10z m430 -19 c0 -24 -54 -51 -101 -51 -96 0 -108 25 -16
35 34 4 71 11 82 16 27 11 35 11 35 0z m373 -29 c-3 -12 -12 -22 -20 -22 -11
0 -10 5 4 24 21 28 24 28 16 -2z m-630 -7 c-10 -7 -22 -11 -27 -8 -5 4 -1 12
9 19 10 7 22 11 27 8 5 -3 1 -12 -9 -19z m-251 -51 c-8 -15 -2 -63 18 -141 5
-19 4 -35 -1 -39 -9 -5 -10 -4 -14 33 -1 12 -11 33 -22 47 -18 23 -19 30 -9
73 14 59 29 86 34 61 2 -10 -1 -25 -6 -34z m119 19 c5 -15 2 -26 -11 -38 -17
-16 -19 -15 -35 9 -10 14 -14 33 -11 42 8 22 47 14 57 -13z m460 -25 c15 -30
22 -62 23 -104 l1 -62 -59 -56 c-54 -52 -60 -55 -76 -41 -11 10 -37 15 -77 15
-37 0 -65 5 -71 13 -6 7 -13 63 -16 124 -5 129 -10 123 97 123 40 1 86 7 102
15 46 21 53 18 76 -27z m-345 -35 c-11 -11 -17 4 -9 23 7 18 8 18 11 1 2 -10
1 -21 -2 -24z m636 -8 c4 -36 -7 -42 -25 -13 -11 17 -3 48 12 48 5 0 11 -16
13 -35z m-617 -65 c3 -5 -1 -10 -9 -10 -9 0 -16 5 -16 10 0 6 4 10 9 10 6 0
13 -4 16 -10z m635 0 c0 -5 -2 -10 -4 -10 -3 0 -8 5 -11 10 -3 6 -1 10 4 10 6
0 11 -4 11 -10z m44 -65 c18 -38 13 -75 -10 -75 -8 0 -14 10 -14 24 0 13 -3
38 -6 55 -9 42 10 40 30 -4z m-1115 -59 c16 -10 14 -33 -5 -40 -28 -11 -36 -6
-31 17 l6 22 -18 -23 c-15 -20 -19 -21 -29 -9 -21 24 -4 46 32 43 18 -2 38 -6
45 -10z m109 -8 c4 -20 -24 -27 -60 -15 -47 15 -35 36 20 33 26 -1 38 -6 40
-18z m962 -48 c0 -5 -4 -10 -10 -10 -5 0 -10 -7 -10 -15 0 -24 -50 -39 -68
-21 -19 19 -9 43 20 49 43 8 68 7 68 -3z m-120 -31 c0 -10 -7 -19 -15 -19 -13
0 -14 12 -6 48 3 12 21 -13 21 -29z m-947 2 c4 0 12 -1 18 -1 5 0 8 -4 5 -9
-11 -17 -70 -7 -74 12 -3 14 0 16 20 8 13 -5 26 -9 31 -10z m638 -24 c19 -14
18 -15 -15 -21 -32 -6 -76 8 -76 24 0 13 72 10 91 -3z m196 2 c59 15 70 6 35
-30 l-29 -30 -68 11 c-71 11 -105 24 -105 40 0 13 50 17 89 7 21 -5 50 -4 78
2z"/>
<path d="M174 1340 c-28 -11 -64 -58 -64 -82 0 -30 19 -58 39 -58 34 0 81 68
81 119 0 33 -14 38 -56 21z"/>
<path d="M748 293 c7 -3 16 -2 19 1 4 3 -2 6 -13 5 -11 0 -14 -3 -6 -6z"/>
</g>
</svg>
